<svg width="183" height="61" viewBox="0 0 183 61" fill="none" xmlns="http://www.w3.org/2000/svg">
<path d="M75.6404 27.072C76.4937 27.072 77.219 27.2107 77.8164 27.488C78.4137 27.7653 78.851 28.0213 79.1284 28.256C79.8324 28.832 80.259 28.448 80.4084 27.104H81.1444C81.1017 27.7013 81.0697 28.416 81.0484 29.248C81.027 30.0587 81.0164 31.1573 81.0164 32.544H80.2804C80.1524 31.7547 79.9284 30.9867 79.6084 30.24C79.3097 29.4933 78.8617 28.8853 78.2644 28.416C77.667 27.9253 76.8884 27.68 75.9284 27.68C75.1817 27.68 74.5524 27.8933 74.0404 28.32C73.5497 28.7253 73.3044 29.3333 73.3044 30.144C73.3044 30.784 73.4964 31.3387 73.8804 31.808C74.2644 32.256 74.7657 32.6827 75.3844 33.088C76.003 33.472 76.675 33.8987 77.4004 34.368C78.211 34.88 78.947 35.4027 79.6084 35.936C80.2697 36.4693 80.7924 37.056 81.1764 37.696C81.5817 38.336 81.7844 39.0933 81.7844 39.968C81.7844 40.9493 81.5284 41.7707 81.0164 42.432C80.5044 43.0933 79.8324 43.5947 79.0004 43.936C78.1897 44.2773 77.2937 44.448 76.3124 44.448C75.843 44.448 75.395 44.4053 74.9684 44.32C74.563 44.256 74.1684 44.1493 73.7844 44C73.571 43.8933 73.347 43.7653 73.1124 43.616C72.899 43.4667 72.6857 43.3067 72.4724 43.136C72.259 42.9653 72.067 42.976 71.8964 43.168C71.7257 43.3387 71.5977 43.6907 71.5124 44.224H70.7764C70.819 43.5413 70.851 42.7093 70.8724 41.728C70.8937 40.7467 70.9044 39.4453 70.9044 37.824H71.6404C71.7897 39.0187 72.003 40.064 72.2804 40.96C72.5577 41.856 72.995 42.56 73.5924 43.072C74.1897 43.5627 75.0217 43.808 76.0884 43.808C76.515 43.808 76.9417 43.712 77.3684 43.52C77.8164 43.328 78.1897 43.008 78.4884 42.56C78.787 42.112 78.9364 41.5147 78.9364 40.768C78.9364 39.8293 78.595 39.0613 77.9124 38.464C77.2297 37.8667 76.3657 37.2373 75.3204 36.576C74.5524 36.0853 73.827 35.5947 73.1444 35.104C72.483 34.6133 71.939 34.0587 71.5124 33.44C71.107 32.8213 70.9044 32.0747 70.9044 31.2C70.9044 30.24 71.1177 29.4613 71.5444 28.864C71.9924 28.2453 72.579 27.7973 73.3044 27.52C74.0297 27.2213 74.8084 27.072 75.6404 27.072ZM92.2249 27.072C92.9075 27.072 93.5689 27.1573 94.2089 27.328C94.8489 27.4987 95.4249 27.7547 95.9369 28.096C96.4275 28.416 96.8009 28.7893 97.0569 29.216C97.3129 29.6213 97.4409 30.0693 97.4409 30.56C97.4409 31.136 97.2809 31.584 96.9609 31.904C96.6409 32.2027 96.2355 32.352 95.7449 32.352C95.2755 32.352 94.8595 32.2133 94.4969 31.936C94.1555 31.6587 93.9849 31.264 93.9849 30.752C93.9849 30.2613 94.1129 29.8667 94.3689 29.568C94.6462 29.2693 94.9662 29.0773 95.3289 28.992C95.1155 28.608 94.7315 28.288 94.1769 28.032C93.6435 27.776 93.0675 27.648 92.4489 27.648C91.9155 27.648 91.3822 27.776 90.8489 28.032C90.3155 28.288 89.8249 28.7147 89.3769 29.312C88.9289 29.888 88.5662 30.688 88.2889 31.712C88.0115 32.7147 87.8729 33.9733 87.8729 35.488C87.8729 37.3653 88.0862 38.8587 88.5129 39.968C88.9395 41.0773 89.4942 41.8773 90.1769 42.368C90.8809 42.8373 91.6489 43.072 92.4809 43.072C93.0355 43.072 93.6009 42.9653 94.1769 42.752C94.7529 42.5387 95.2969 42.1973 95.8089 41.728C96.3209 41.2373 96.7582 40.5867 97.1209 39.776L97.7289 40C97.5155 40.6827 97.1635 41.376 96.6729 42.08C96.1822 42.7627 95.5422 43.328 94.7529 43.776C93.9635 44.224 92.9929 44.448 91.8409 44.448C90.5182 44.448 89.3235 44.1067 88.2569 43.424C87.1902 42.7413 86.3369 41.7707 85.6969 40.512C85.0782 39.232 84.7689 37.7173 84.7689 35.968C84.7689 34.2187 85.0782 32.6827 85.6969 31.36C86.3369 30.016 87.2222 28.9707 88.3529 28.224C89.4835 27.456 90.7742 27.072 92.2249 27.072ZM109.739 27.072C110.315 27.072 110.817 27.1893 111.243 27.424C111.691 27.6587 112.033 27.968 112.267 28.352C112.523 28.7147 112.651 29.1307 112.651 29.6C112.651 30.1333 112.481 30.6027 112.139 31.008C111.819 31.4133 111.382 31.616 110.827 31.616C110.379 31.616 109.985 31.4773 109.643 31.2C109.302 30.9013 109.131 30.4853 109.131 29.952C109.131 29.5467 109.238 29.2053 109.451 28.928C109.686 28.6293 109.942 28.3947 110.219 28.224C110.07 28.0107 109.846 27.904 109.547 27.904C108.886 27.904 108.278 28.1067 107.723 28.512C107.169 28.896 106.699 29.3973 106.315 30.016C105.931 30.6347 105.633 31.296 105.419 32C105.206 32.6827 105.099 33.3227 105.099 33.92V40.704C105.099 41.7493 105.398 42.4533 105.995 42.816C106.614 43.1573 107.446 43.328 108.491 43.328V44C108.001 43.9787 107.307 43.9573 106.411 43.936C105.515 43.8933 104.566 43.872 103.563 43.872C102.838 43.872 102.113 43.8933 101.387 43.936C100.683 43.9573 100.15 43.9787 99.7874 44V43.328C100.662 43.328 101.281 43.168 101.643 42.848C102.027 42.528 102.219 41.92 102.219 41.024V31.008C102.219 30.048 102.049 29.344 101.707 28.896C101.366 28.4267 100.726 28.192 99.7874 28.192V27.52C100.47 27.584 101.131 27.616 101.771 27.616C102.39 27.616 102.977 27.584 103.531 27.52C104.107 27.4347 104.63 27.3173 105.099 27.168V31.168C105.334 30.5493 105.665 29.9307 106.091 29.312C106.539 28.672 107.073 28.1387 107.691 27.712C108.31 27.2853 108.993 27.072 109.739 27.072ZM121.252 27.072C122.618 27.072 123.844 27.3707 124.932 27.968C126.02 28.5653 126.884 29.504 127.524 30.784C128.186 32.064 128.516 33.728 128.516 35.776C128.516 37.824 128.186 39.488 127.524 40.768C126.884 42.0267 126.02 42.9547 124.932 43.552C123.844 44.1493 122.618 44.448 121.252 44.448C119.908 44.448 118.682 44.1493 117.572 43.552C116.484 42.9547 115.61 42.0267 114.948 40.768C114.308 39.488 113.988 37.824 113.988 35.776C113.988 33.728 114.308 32.064 114.948 30.784C115.61 29.504 116.484 28.5653 117.572 27.968C118.682 27.3707 119.908 27.072 121.252 27.072ZM121.252 27.712C120.036 27.712 119.034 28.3413 118.244 29.6C117.476 30.8587 117.092 32.9173 117.092 35.776C117.092 38.6347 117.476 40.6933 118.244 41.952C119.034 43.1893 120.036 43.808 121.252 43.808C122.468 43.808 123.46 43.1893 124.228 41.952C125.018 40.6933 125.412 38.6347 125.412 35.776C125.412 32.9173 125.018 30.8587 124.228 29.6C123.46 28.3413 122.468 27.712 121.252 27.712ZM135.719 18.912V41.024C135.719 41.92 135.9 42.528 136.263 42.848C136.647 43.168 137.276 43.328 138.151 43.328V44C137.788 43.9787 137.234 43.9573 136.487 43.936C135.762 43.8933 135.026 43.872 134.279 43.872C133.554 43.872 132.818 43.8933 132.071 43.936C131.324 43.9573 130.77 43.9787 130.407 44V43.328C131.282 43.328 131.9 43.168 132.263 42.848C132.647 42.528 132.839 41.92 132.839 41.024V22.752C132.839 21.792 132.668 21.088 132.327 20.64C131.986 20.1707 131.346 19.936 130.407 19.936V19.264C131.09 19.328 131.751 19.36 132.391 19.36C133.01 19.36 133.596 19.328 134.151 19.264C134.727 19.1787 135.25 19.0613 135.719 18.912ZM144.875 18.912V41.024C144.875 41.92 145.057 42.528 145.419 42.848C145.803 43.168 146.433 43.328 147.307 43.328V44C146.945 43.9787 146.39 43.9573 145.643 43.936C144.918 43.8933 144.182 43.872 143.435 43.872C142.71 43.872 141.974 43.8933 141.227 43.936C140.481 43.9573 139.926 43.9787 139.563 44V43.328C140.438 43.328 141.057 43.168 141.419 42.848C141.803 42.528 141.995 41.92 141.995 41.024V22.752C141.995 21.792 141.825 21.088 141.483 20.64C141.142 20.1707 140.502 19.936 139.563 19.936V19.264C140.246 19.328 140.907 19.36 141.547 19.36C142.166 19.36 142.753 19.328 143.307 19.264C143.883 19.1787 144.406 19.0613 144.875 18.912Z" fill="#F8B9BC"/>
<path d="M1 1L175 1" stroke="#F8B9BC" stroke-width="2" stroke-linecap="round"/>
<path d="M176 1C176 0.447715 175.552 6.7053e-10 175 0C174.448 -6.7053e-10 174 0.447715 174 1L176 1ZM174.293 57.7071C174.683 58.0976 175.317 58.0976 175.707 57.7071L182.071 51.3431C182.462 50.9526 182.462 50.3195 182.071 49.9289C181.681 49.5384 181.047 49.5384 180.657 49.9289L175 55.5858L169.343 49.9289C168.953 49.5384 168.319 49.5384 167.929 49.9289C167.538 50.3195 167.538 50.9526 167.929 51.3431L174.293 57.7071ZM174 1L174 57L176 57L176 1L174 1Z" fill="#F8B9BC"/>
<path d="M26.3221 16.3509C31.4326 10.0242 40.5581 11.0636 40.5581 11.0636V18.0698C39.4455 18.6261 38.6597 19.6738 38.4372 20.8977L38.1426 22.5178C37.9868 23.3749 37.9868 24.253 38.1426 25.1101L38.4372 26.7302C38.6597 27.9541 39.4455 29.0018 40.5581 29.5581V33.9767H22.0513C22.0513 33.9767 21.2116 22.6776 26.3221 16.3509Z" fill="#F8B9BC"/>
<path d="M55.6779 16.3509C50.5674 10.0242 41.4419 11.0636 41.4419 11.0636V18.0698C42.5545 18.6261 43.3403 19.6738 43.5628 20.8977L43.8574 22.5178C44.0132 23.3749 44.0132 24.253 43.8574 25.1101L43.5628 26.7302C43.3403 27.9541 42.5545 29.0018 41.4419 29.5581V33.9767H59.9487C59.9487 33.9767 60.7884 22.6776 55.6779 16.3509Z" fill="#F8B9BC"/>
<path d="M60 34.8605C60 37.9939 59.5085 41.0966 58.5537 43.9915C57.5989 46.8864 56.1993 49.5167 54.435 51.7324C52.6707 53.948 50.5762 55.7056 48.271 56.9047C45.9658 58.1038 43.4951 58.7209 41 58.7209C38.5049 58.7209 36.0342 58.1038 33.729 56.9047C31.4238 55.7056 29.3293 53.948 27.565 51.7324C25.8007 49.5167 24.4011 46.8864 23.4463 43.9915C22.4914 41.0966 22 37.9939 22 34.8605L41 34.8605H60Z" fill="#F8B9BC"/>
<ellipse cx="40.9998" cy="23.8139" rx="2.2093" ry="3.97674" fill="#F8B9BC"/>
</svg>
