<svg width="37" height="41" viewBox="0 0 37 41" fill="none" xmlns="http://www.w3.org/2000/svg">
<path d="M15.092 35.6612V40.2358C15.092 40.2993 15.1688 40.3311 15.2138 40.2862L16.2175 39.171C17.0067 38.2941 17.8855 37.5022 18.8397 36.8083C19.6663 36.2071 20.5458 35.6821 21.4673 35.2398L23.1249 34.4441L25.4374 33.5921L25.603 33.5169C27.2685 32.7598 28.8124 31.7598 30.1842 30.5494C31.1542 29.741 32.0222 28.8174 32.769 27.7991L32.9835 27.5066C34.0317 26.0552 34.8437 24.4471 35.3894 22.742L35.5394 22.2731L35.783 21.5773C36.1875 20.4213 36.473 19.2271 36.6348 18.0132L36.9552 16.0908C36.9738 15.9791 36.8578 15.8934 36.7565 15.9441L35.296 16.9178L33.5921 17.7698C32.7046 18.1731 31.7612 18.4398 30.794 18.5607L29.3322 18.7434L25.9243 19.1086L24.1934 19.4849C23.4839 19.6391 22.7964 19.8814 22.147 20.2061C21.1845 20.6874 20.3194 21.3427 19.5955 22.139L19.4736 22.2731C18.826 23.1636 18.2647 24.1138 17.7973 25.1108L17.5554 25.6269C16.9691 26.8776 16.4953 28.1779 16.1394 29.5125L15.7006 31.1579L15.092 35.6612Z" fill="#E97A80"/>
<path d="M13.3486 36.9793L13.3881 37.7303V40.1645C13.3881 40.2133 13.3315 40.2402 13.2937 40.2095L11.4407 38.704C10.2253 37.8937 8.9515 37.1746 7.62976 36.5526L7.54601 36.5132L7.51742 36.5007C6.24122 35.9423 4.87968 35.4291 3.89469 34.4441L3.47583 34.0252C2.94616 33.4956 2.49138 32.896 2.12414 32.2431C1.76446 31.6037 1.49202 30.9189 1.31408 30.2072L1.21705 29.8191L1.18027 29.6719C1.04303 29.123 0.973633 28.5593 0.973633 27.9934V26.3421C0.973633 26.3227 0.997108 26.313 1.01084 26.3267L1.56202 26.8779C1.57544 26.8913 1.58995 26.9036 1.6054 26.9146L1.99984 27.1964C2.28815 27.4023 2.60217 27.5696 2.93391 27.694C3.24865 27.812 3.57683 27.8905 3.91091 27.9276L5.59864 28.1151L6.79308 28.2858C7.6929 28.4143 8.56102 28.7089 9.35324 29.1545L9.40215 29.1821C9.86709 29.4436 10.2999 29.7584 10.6919 30.1203C11.3471 30.7251 11.8781 31.4519 12.2552 32.2599L12.2914 32.3375C12.4543 32.6865 12.5893 33.0479 12.6951 33.4183L12.8368 33.9142C13.1223 34.9134 13.294 35.9416 13.3486 36.9793Z" fill="#F2C5C7"/>
<path d="M13.3882 25.6809V31.236C13.3882 31.297 13.3144 31.3276 13.2713 31.2844C13.2681 31.2812 13.2652 31.2777 13.2627 31.274L12.5362 30.1842L12.0124 29.436C11.794 29.124 11.5488 28.8317 11.2795 28.5624C10.9016 28.1845 10.4788 27.8544 10.0205 27.5794L9.97329 27.5511C9.6539 27.3595 9.31968 27.1937 8.97385 27.0553L8.27633 26.7763L6.93751 26.1678L5.59869 25.4375L4.3436 24.5746C3.88305 24.258 3.45247 23.8999 3.05727 23.5047C2.48219 22.9296 1.98634 22.2804 1.58283 21.5742L1.21711 20.9342L1.17512 20.8503C0.558674 19.6174 0.161057 18.2868 0 16.9178V15.0208C0 14.9573 0.0767964 14.9255 0.121711 14.9704L0.775831 15.5056C1.22904 15.8764 1.74162 16.168 2.29193 16.3681C2.6293 16.4908 2.97846 16.5782 3.33384 16.629L5.35527 16.9178L7.42435 17.1612L8.24842 17.3514C8.75115 17.4674 9.2342 17.6564 9.68217 17.9124C10.3593 18.2993 10.9425 18.8314 11.3898 19.4703L11.5625 19.7171L11.9017 20.3202C12.4036 21.2124 12.7837 22.1678 13.032 23.1609C13.188 23.785 13.2913 24.4211 13.3406 25.0626L13.3882 25.6809Z" fill="#E97A80"/>
<path d="M18.6217 20.3257L17.4408 22.2656C17.093 22.8371 16.8035 23.4422 16.5769 24.0717L15.8279 26.1521C15.8242 26.1624 15.8183 26.1718 15.8105 26.1796C15.7663 26.2238 15.6906 26.1971 15.6839 26.1349L15.2138 21.7862L15.1335 19.2183C15.1059 18.3349 15.141 17.4506 15.2386 16.5721L15.3181 15.8571C15.4106 15.0249 15.5907 14.2048 15.8555 13.4104C16.2368 12.2663 16.7901 11.1868 17.4962 10.2092L18.0131 9.49343L18.217 9.27388C19.1322 8.28819 20.1678 7.42147 21.2993 6.69409L23.0032 5.84211L25.0723 4.86843L26.1584 4.42122C26.8111 4.15246 27.4272 3.80213 27.9919 3.3786C28.3977 3.0742 28.7751 2.7335 29.1192 2.36071L30.0625 1.33882L31.0361 0.121711C31.0786 0.079234 31.1511 0.111848 31.1474 0.171809L30.9144 4.01645L30.7731 5.57095C30.7052 6.31774 30.561 7.05561 30.3426 7.77299L30.191 8.2711C29.9447 9.08059 29.5682 9.84459 29.0764 10.5331C28.7609 10.9748 28.4003 11.3822 28.0002 11.749L27.1414 12.5362L24.7072 14.3619L21.9078 16.5527L20.2039 18.2566L18.6217 20.3257Z" fill="#F2C5C7"/>
</svg>
