<?xml version="1.0" encoding="UTF-8"?>
<svg xmlns="http://www.w3.org/2000/svg" xmlns:xlink="http://www.w3.org/1999/xlink" viewBox="0 0 50 50" width="50px" height="50px">
<g id="surface21999913">
<path style=" stroke:none;fill-rule:nonzero;fill:rgb(100%,100%,100%);fill-opacity:1;" d="M 25.023438 4.167969 C 13.554688 4.167969 4.214844 13.496094 4.210938 24.96875 C 4.210938 28.632812 5.167969 32.214844 6.992188 35.367188 L 4.167969 45.832031 L 15.066406 43.257812 C 18.105469 44.914062 21.527344 45.785156 25.011719 45.789062 L 25.019531 45.789062 C 36.488281 45.789062 45.824219 36.457031 45.828125 24.988281 C 45.832031 19.425781 43.671875 14.199219 39.742188 10.265625 C 35.8125 6.335938 30.589844 4.167969 25.023438 4.167969 Z M 25.019531 8.332031 C 29.46875 8.335938 33.652344 10.070312 36.796875 13.210938 C 39.941406 16.359375 41.667969 20.539062 41.664062 24.984375 C 41.660156 34.160156 34.195312 41.621094 25.015625 41.621094 C 22.238281 41.621094 19.488281 40.921875 17.066406 39.601562 L 15.660156 38.835938 L 14.113281 39.199219 L 10.011719 40.167969 L 11.011719 36.449219 L 11.460938 34.78125 L 10.601562 33.285156 C 9.144531 30.769531 8.375 27.890625 8.378906 24.96875 C 8.382812 15.796875 15.847656 8.332031 25.019531 8.332031 Z M 17.660156 15.363281 C 17.3125 15.363281 16.75 15.496094 16.273438 16.015625 C 15.792969 16.535156 14.449219 17.789062 14.449219 20.347656 C 14.449219 22.90625 16.3125 25.378906 16.574219 25.726562 C 16.832031 26.074219 20.171875 31.488281 25.457031 33.574219 C 29.847656 35.304688 30.738281 34.964844 31.695312 34.875 C 32.648438 34.789062 34.773438 33.621094 35.207031 32.40625 C 35.636719 31.191406 35.640625 30.144531 35.511719 29.933594 C 35.382812 29.714844 35.035156 29.585938 34.511719 29.324219 C 33.996094 29.066406 31.4375 27.808594 30.960938 27.636719 C 30.484375 27.464844 30.136719 27.375 29.789062 27.898438 C 29.445312 28.417969 28.449219 29.585938 28.144531 29.933594 C 27.839844 30.28125 27.539062 30.328125 27.019531 30.066406 C 26.496094 29.804688 24.824219 29.253906 22.835938 27.480469 C 21.289062 26.105469 20.246094 24.40625 19.941406 23.886719 C 19.640625 23.367188 19.914062 23.082031 20.175781 22.824219 C 20.40625 22.589844 20.691406 22.214844 20.953125 21.910156 C 21.210938 21.609375 21.300781 21.390625 21.472656 21.042969 C 21.644531 20.699219 21.554688 20.394531 21.425781 20.132812 C 21.296875 19.875 20.285156 17.304688 19.824219 16.277344 C 19.433594 15.410156 19.023438 15.390625 18.652344 15.375 C 18.351562 15.363281 18.003906 15.363281 17.660156 15.363281 Z M 17.660156 15.363281 "/>
</g>
</svg>
