<svg width="1804" height="781" viewBox="0 0 1804 781" fill="none" xmlns="http://www.w3.org/2000/svg">
<path d="M463.578 53.9993C358.828 112.426 353.923 271.012 262.575 348.735C147.762 446.421 2.09385 475.222 1.59365 514.723C1.09345 554.223 2.93128 647.765 1.09345 693.723C-0.366152 730.223 -2.13561 776.834 50.0937 780.223C50.0937 780.223 1727.5 780 1741.5 780C1755.5 780 1794.46 781.357 1801.09 738.723C1804.98 713.723 1802.5 721.224 1802 607.5C1801.84 570.932 1802 543.5 1802 523C1790.25 482.805 1753.45 467.879 1685.55 389.224C1597.26 286.938 1683.4 9.51815 1548.31 11.4923C1340.89 14.5233 1275 390.911 1067.7 398.253C920.812 403.455 948.74 110.029 821.022 37.2497C716.485 -22.3195 568.629 -4.59512 463.578 53.9993Z" fill="#8B2975" fill-opacity="0.15"/>
</svg>
