<svg width="1292" height="709" viewBox="0 0 1292 709" fill="none" xmlns="http://www.w3.org/2000/svg">
<path fill-rule="evenodd" clip-rule="evenodd" d="M786.337 214.556C856.115 249.492 931.162 267.961 1008.03 281.4C1114.84 300.07 1217.52 221.038 1291.58 300.2C1291.58 392.2 1291.58 550.7 1291.58 659.2C1291.58 696.7 1256.58 708.2 1241.58 708.2C1179.58 708.2 1298.35 708.202 1200.08 708.2C1172.58 708.2 1138.08 708.2 1122.08 708.2C1008.27 708.198 1087.89 708.2 974.079 708.2C874.58 708.2 880.168 708.2 786.337 708.2C707.079 708.2 623.55 708.201 548.079 708.2C466.08 708.2 423.702 708.201 346.079 708.2C266.579 708.2 100.079 708.2 61.5795 708.2C-31.9204 708.2 1.22492 618.212 36.2091 501.101C69.6625 389.114 285.152 468.868 361.362 380.239C446.159 281.626 339.553 54.6371 460.746 7.38791C581.924 -39.8554 670.037 156.328 786.337 214.556Z" fill="#FF84B8" fill-opacity="0.15"/>
</svg>
