<svg width="399" height="706" viewBox="0 0 399 706" fill="none" xmlns="http://www.w3.org/2000/svg">
<path fill-rule="evenodd" clip-rule="evenodd" d="M0.148432 620.527C0.148421 577.527 0.148441 592.527 0.148409 567.027C0.148335 495.474 0.148427 554.527 0.148415 492.412C0.148402 423.284 0.148376 444.527 0.148369 376.027C0.14837 316.197 0.148382 314.527 0.148393 256.527C0.148424 191.674 0.148383 238.527 0.148398 179.027C0.14838 105.777 0.148422 124.527 0.148417 108.527C0.148411 33.4216 0.148505 84.0273 0.148412 49.5271C0.148362 37.5274 10.1484 0.527327 49.1485 0.527328C111.148 0.527332 267.148 0.527322 320.148 0.527347C371.383 0.527338 343.087 51.2141 349.984 101.974C356.829 152.351 316.985 199.579 321.898 250.18C329.695 330.466 431.926 413.765 386.75 480.587C343.55 544.485 223.635 451.673 158.131 492.412C85.2465 537.741 85.7957 699.234 0.148409 705.027C0.148445 651.027 0.148425 679.027 0.148432 620.527Z" fill="#FF84B8" fill-opacity="0.15"/>
</svg>
