<?xml version="1.0" encoding="UTF-8"?>
<svg xmlns="http://www.w3.org/2000/svg" xmlns:xlink="http://www.w3.org/1999/xlink" viewBox="0 0 50 50" width="50px" height="50px">
<g id="surface22002049">
<path style=" stroke:none;fill-rule:nonzero;fill:rgb(100%,100%,100%);fill-opacity:1;" d="M 47.667969 36.667969 C 45.796875 33.300781 40.976562 29.253906 38.984375 27.492188 C 38.441406 27.007812 38.382812 26.175781 38.878906 25.640625 C 42.675781 21.558594 45.714844 16.867188 46.761719 14.035156 C 47.222656 12.78125 46.269531 11.457031 44.921875 11.457031 L 41.011719 11.457031 C 39.722656 11.457031 38.96875 11.921875 38.609375 12.65625 C 35.453125 19.128906 32.746094 21.925781 30.847656 23.5625 C 29.789062 24.480469 28.132812 23.722656 28.132812 22.324219 C 28.132812 19.636719 28.132812 16.164062 28.132812 13.699219 C 28.132812 12.507812 27.15625 11.539062 25.949219 11.539062 L 18.808594 11.457031 C 17.910156 11.457031 17.394531 12.476562 17.933594 13.191406 L 19.113281 14.882812 C 19.558594 15.46875 19.796875 16.183594 19.796875 16.914062 L 19.792969 24.539062 C 19.792969 25.863281 18.183594 26.511719 17.230469 25.582031 C 14.003906 22.4375 11.199219 16.019531 10.191406 12.949219 C 9.902344 12.058594 9.070312 11.460938 8.125 11.457031 L 4.273438 11.449219 C 2.828125 11.449219 1.773438 12.820312 2.164062 14.199219 C 5.683594 26.550781 12.902344 38.300781 25.769531 39.574219 C 27.039062 39.699219 28.132812 38.675781 28.132812 37.414062 L 28.132812 33.40625 C 28.132812 32.257812 29.035156 31.269531 30.191406 31.242188 C 30.230469 31.242188 30.273438 31.242188 30.3125 31.242188 C 33.714844 31.242188 37.527344 36.195312 38.863281 38.511719 C 39.246094 39.175781 39.960938 39.582031 40.738281 39.582031 L 45.917969 39.582031 C 47.429688 39.582031 48.398438 37.980469 47.667969 36.667969 Z M 47.667969 36.667969 "/>
</g>
</svg>
